PathFileType	4	(X/Y/Z)	HSS_squat4.trc
DataRate	CameraRate	NumFrames	NumMarkers	Units	OrigDataRate	OrigDataStartFrame	OrigNumFrames
120.0	120.0	7	44	mm	120.0	122	973
Frame#	Time		R.Shoulder		Offset		L.Shoulder		R.Elbow		R.Wrist.Radial		R.Wrist		R.Hand		L.Elbow		L.Wrist.Radial		L.Wrist		L.Hand		R.Hip		V.Sacral		L.PSIS		L.Hip		R.Thigh.Upper		R.Thigh.Front		R.Thigh.Rear		X.Shell.Lower.Thigh.Right		R.Knee.Lateral		R.Shank.Upper		R.Shank.Front		R.Shank.Rear		X.Shell.Lower.Shank.Right		R.Ankle.Lateral		R.Heel		R.Toe		L.Thigh.Upper		L.Thigh.Front		L.Thigh.Rear		X.Shell.Lower.Thigh.Left		L.Knee.Lateral		L.Shank.Upper		L.Shank.Front		L.Shank.Rear		X.Shell.Lower.Shank.Left		L.Ankle.Lateral		L.Heel		L.Toe		R.Troc		L.Troc		R.PSIS		L.ASIS		R.ASIS
			X1	Y1	Z1	X2	Y2	Z2	X3	Y3	Z3	X4	Y4	Z4	X5	Y5	Z5	X6	Y6	Z6	X7	Y7	Z7	X8	Y8	Z8	X9	Y9	Z9	X10	Y10	Z10	X11	Y11	Z11	X12	Y12	Z12	X13	Y13	Z13	X14	Y14	Z14	X15	Y15	Z15	X16	Y16	Z16	X17	Y17	Z17	X18	Y18	Z18	X19	Y19	Z19	X20	Y20	Z20	X21	Y21	Z21	X22	Y22	Z22	X23	Y23	Z23	X24	Y24	Z24	X25	Y25	Z25	X26	Y26	Z26	X27	Y27	Z27	X28	Y28	Z28	X29	Y29	Z29	X30	Y30	Z30	X31	Y31	Z31	X32	Y32	Z32	X33	Y33	Z33	X34	Y34	Z34	X35	Y35	Z35	X36	Y36	Z36	X37	Y37	Z37	X38	Y38	Z38	X39	Y39	Z39	X40	Y40	Z40	X41	Y41	Z41	X42	Y42	Z42	X43	Y43	Z43	X44	Y44	Z44

122	1.00833	147.59958	1475.08325	-64.23336	-131.61812	1358.25549	25.58796	-194.91183	1485.32141	-67.45505	301.37726	1310.12207	-347.66687	73.30995	1366.27454	-483.56769	116.20753	1406.80188	-526.24396	31.75868	1408.94324	-555.59589	-356.81467	1339.21851	-355.85904	-122.98289	1368.88171	-484.69028	-164.99701	1412.45203	-523.96765	-79.88555	1400.50134	-550.67035	126.60390	1034.13806	-158.58517	-22.59572	1018.40967	-38.73340	-62.89038	1023.92865	-41.33352	-169.81282	1033.78137	-161.24586	181.92477	696.21021	-186.27954	170.00453	656.74670	-218.83566	192.94553	659.23706	-161.37379	178.92136	624.57074	-188.53905	172.23772	518.16608	-122.06612	232.57645	378.50122	-98.60804	215.25732	332.76816	-127.00191	222.07173	341.34634	-66.75462	219.18541	300.22955	-90.08359	189.57076	72.23753	-82.05090	141.76399	33.43702	-41.81868	201.93390	31.18179	-237.90976	-219.03720	695.96881	-199.48656	-201.80069	644.37939	-218.66359	-235.62427	661.76935	-168.52769	-227.28278	625.76752	-194.12726	-213.48584	510.18680	-124.54123	-272.47519	317.11716	-85.51537	-259.80841	291.35126	-113.52812	-261.84042	277.20911	-55.10552	-268.24612	246.76511	-77.54615	-239.96413	76.09268	-95.18080	-195.90773	34.91894	-42.11928	-241.59595	32.15420	-241.37251	167.21648	896.82727	-166.26129	-209.96761	902.21246	-159.05821	20.67749	1022.33752	-39.54665	-129.04437	998.91522	-224.81726	93.93590	997.08276	-218.42752
123	1.01667	147.60828	1475.06067	-64.29760	-131.65807	1358.26929	25.54117	-194.91159	1485.34204	-67.50349	301.41107	1310.11169	-347.67227	73.39992	1366.22363	-483.63901	116.28387	1406.77344	-526.30762	31.85639	1408.87817	-555.66211	-356.78964	1339.24597	-355.95566	-122.89678	1368.87756	-484.72479	-164.93546	1412.40515	-524.02789	-79.83318	1400.47266	-550.77209	126.59466	1034.12109	-158.61917	-22.62279	1018.39819	-38.75914	-62.90908	1023.91486	-41.38807	-169.82895	1033.76514	-161.31136	181.93756	696.20520	-186.29810	170.00525	656.76880	-218.90004	192.93190	659.22900	-161.42569	178.88596	624.57471	-188.59068	172.22894	518.17542	-122.13660	232.56532	378.49686	-98.66386	215.25099	332.77792	-127.03749	222.04706	341.35995	-66.77046	219.16722	300.22638	-90.10114	189.56088	72.24878	-82.06093	141.75211	33.44291	-41.79857	201.92476	31.19341	-237.95126	-219.05876	695.96490	-199.54807	-201.80765	644.37708	-218.71284	-235.63348	661.76978	-168.59888	-227.29216	625.76331	-194.17284	-213.47707	510.17313	-124.61918	-272.46521	317.11627	-85.58313	-259.81180	291.34186	-113.56005	-261.85400	277.21259	-55.13187	-268.24625	246.78217	-77.58727	-239.96941	76.09290	-95.18786	-195.91290	34.93561	-42.10818	-241.60875	32.13469	-241.37077	167.21831	896.84326	-166.27779	-210.00337	902.22058	-159.11534	20.63527	1022.32086	-39.63553	-129.06906	998.91559	-224.86447	93.92996	997.10553	-218.50058
124	1.02500	147.60587	1475.03467	-64.33617	-131.66408	1358.26404	25.49853	-194.90874	1485.35046	-67.55781	301.46265	1310.11194	-347.67642	73.46510	1366.18579	-483.71002	116.35542	1406.72083	-526.38629	31.90130	1408.81616	-555.76489	-356.73566	1339.23706	-356.02975	-122.81361	1368.85925	-484.77982	-164.85489	1412.35815	-524.11407	-79.76231	1400.39819	-550.86377	126.56371	1034.10767	-158.65666	-22.65026	1018.38031	-38.78444	-62.93510	1023.90942	-41.44031	-169.86687	1033.76978	-161.35242	181.89136	696.21362	-186.36302	169.97205	656.76270	-218.93076	192.91025	659.23560	-161.45039	178.87041	624.56226	-188.62260	172.20090	518.16656	-122.12437	232.53542	378.49576	-98.70039	215.25371	332.77182	-127.04329	222.03760	341.34839	-66.78905	219.15288	300.23575	-90.13016	189.55312	72.25190	-82.06979	141.74451	33.46661	-41.79449	201.90938	31.20123	-237.95053	-219.06656	695.96710	-199.62616	-201.81416	644.37628	-218.75699	-235.65324	661.76068	-168.70158	-227.30190	625.76343	-194.25945	-213.49263	510.18173	-124.67847	-272.46732	317.12729	-85.60986	-259.81015	291.33572	-113.60986	-261.85483	277.22089	-55.18027	-268.25241	246.78799	-77.61704	-239.93988	76.08149	-95.16965	-195.91110	34.94444	-42.11251	-241.62506	32.13532	-241.37115	167.19307	896.84436	-166.30751	-210.02087	902.24402	-159.17480	20.61073	1022.31677	-39.68320	-129.06757	998.91650	-224.90851	93.90994	997.11023	-218.56377
125	1.03333	147.60533	1474.99927	-64.35697	-131.66760	1358.26904	25.44043	-194.90025	1485.36804	-67.62812	301.53467	1310.09546	-347.68658	73.50767	1366.12500	-483.77286	116.40166	1406.68408	-526.42255	31.97730	1408.76477	-555.82239	-356.71033	1339.24548	-356.11349	-122.68382	1368.78503	-484.84247	-164.77275	1412.31580	-524.16510	-79.72245	1400.32007	-550.96252	126.55551	1034.09839	-158.66809	-22.66139	1018.37976	-38.84318	-62.95719	1023.91510	-41.48999	-169.87987	1033.77490	-161.45735	181.87283	696.20490	-186.39009	169.95251	656.77673	-218.96913	192.90106	659.23541	-161.49109	178.85957	624.57642	-188.64342	172.21245	518.16498	-122.16811	232.52719	378.50397	-98.70505	215.25047	332.77420	-127.07023	222.02721	341.34546	-66.82714	219.13983	300.23883	-90.11844	189.53152	72.27511	-82.04977	141.73581	33.45597	-41.80965	201.91759	31.19363	-237.97212	-219.06514	695.96399	-199.71118	-201.80363	644.36658	-218.80661	-235.65140	661.76801	-168.79597	-227.30234	625.76587	-194.33679	-213.49240	510.18765	-124.74774	-272.47116	317.13556	-85.67675	-259.80362	291.32858	-113.65387	-261.86761	277.24670	-55.21114	-268.26675	246.79329	-77.65626	-239.94478	76.09502	-95.17655	-195.90675	34.92996	-42.11042	-241.59827	32.11153	-241.34978	167.19608	896.84570	-166.33548	-210.05093	902.24445	-159.27763	20.57428	1022.30579	-39.72391	-129.07263	998.92999	-224.93326	93.91508	997.10376	-218.61523
126	1.04167	147.62622	1474.95044	-64.39787	-131.70166	1358.29712	25.40136	-194.89656	1485.38513	-67.68341	301.59705	1310.08533	-347.65591	73.59011	1366.12427	-483.81363	116.47691	1406.65369	-526.49872	32.04685	1408.72070	-555.88062	-356.66083	1339.25598	-356.15689	-122.70642	1368.67249	-484.93979	-164.66748	1412.25659	-524.26093	-79.65565	1400.27039	-551.06256	126.55125	1034.08325	-158.68016	-22.68261	1018.37927	-38.91954	-62.98273	1023.90076	-41.53129	-169.88727	1033.76672	-161.51250	181.84491	696.19855	-186.43773	169.94525	656.78168	-219.02354	192.88403	659.24170	-161.50531	178.82852	624.56995	-188.65509	172.16794	518.14771	-122.18146	232.51254	378.49020	-98.72103	215.22919	332.77267	-127.08310	222.02258	341.36761	-66.83836	219.11743	300.23560	-90.14642	189.53035	72.27082	-82.06458	141.75287	33.45605	-41.82688	201.91185	31.18279	-237.96277	-219.07274	695.97986	-199.76686	-201.83817	644.36517	-218.88387	-235.64674	661.76050	-168.89346	-227.31020	625.74609	-194.47755	-213.50031	510.18604	-124.81436	-272.49670	317.13083	-85.71637	-259.79617	291.32910	-113.71485	-261.87787	277.24503	-55.24548	-268.26379	246.79686	-77.71098	-239.93958	76.09589	-95.19207	-195.88445	34.93122	-42.15538	-241.58748	32.11893	-241.38890	167.19405	896.82196	-166.37285	-210.05522	902.25134	-159.38264	20.53160	1022.28674	-39.79506	-129.07100	998.93530	-224.99683	93.92651	997.12030	-218.65569
127	1.05000	147.65298	1474.91101	-64.42918	-131.69164	1358.30554	25.33589	-194.89252	1485.39417	-67.72820	301.62631	1310.06213	-347.67599	73.62539	1366.03516	-483.91446	116.52992	1406.62988	-526.51965	32.08773	1408.68262	-555.99030	-356.63086	1339.26355	-356.20966	-122.34529	1368.65723	-484.97318	-164.58099	1412.19153	-524.30768	-79.61069	1400.19971	-551.13666	126.52738	1034.07837	-158.72997	-22.71192	1018.38849	-38.95823	-63.00939	1023.90613	-41.56371	-169.90561	1033.76038	-161.61127	181.83708	696.17419	-186.43529	169.91881	656.76532	-219.02054	192.88211	659.22839	-161.52203	178.81891	624.56116	-188.68141	172.16560	518.15497	-122.20001	232.50266	378.50693	-98.73124	215.23737	332.78333	-127.07635	222.00896	341.36493	-66.84760	219.12163	300.23853	-90.14486	189.52185	72.27285	-82.04649	141.75206	33.44888	-41.83230	201.92609	31.19303	-237.94182	-219.09715	695.95740	-199.82419	-201.79666	644.36548	-218.93513	-235.64580	661.75360	-168.95316	-227.31238	625.73273	-194.54854	-213.50333	510.16788	-124.90073	-272.51111	317.12576	-85.75542	-259.80969	291.32004	-113.72018	-261.88858	277.24792	-55.27803	-268.28091	246.79984	-77.73487	-239.93088	76.06662	-95.19776	-195.91187	34.93792	-42.10513	-241.58049	32.11906	-241.37547	167.16031	896.84155	-166.36345	-210.07588	902.26074	-159.45145	20.50646	1022.28754	-39.81809	-129.08179	998.93176	-225.00784	93.92757	997.09210	-218.70746
128	1.05833	147.67728	1474.87244	-64.46494	-131.70450	1358.29980	25.30214	-194.88841	1485.40234	-67.79651	301.69830	1310.03564	-347.63498	73.67302	1365.99365	-483.92966	116.56849	1406.59351	-526.53906	32.16427	1408.62573	-555.99463	-356.57312	1339.25964	-356.30521	-122.08728	1368.60034	-485.02243	-164.49467	1412.13000	-524.37415	-79.55498	1400.15527	-551.15997	126.51186	1034.07190	-158.77977	-22.73836	1018.38354	-39.02036	-63.03820	1023.90948	-41.59813	-169.91846	1033.79102	-161.68794	181.80371	696.17499	-186.45515	169.88126	656.74219	-219.01401	192.85031	659.24902	-161.53831	178.78154	624.57477	-188.72005	172.13631	518.17133	-122.22262	232.48726	378.51312	-98.75235	215.22859	332.79578	-127.09551	221.98820	341.36783	-66.86163	219.11218	300.24533	-90.15155	189.52913	72.26761	-82.05862	141.74316	33.45045	-41.82767	201.92905	31.19919	-237.95383	-219.06902	695.96021	-199.92203	-201.82094	644.36774	-219.01657	-235.64996	661.75928	-169.03410	-227.30321	625.72656	-194.63702	-213.53479	510.16473	-124.90373	-272.52841	317.13971	-85.81818	-259.81342	291.32056	-113.76701	-261.89673	277.26147	-55.29980	-268.29596	246.80251	-77.76672	-239.94624	76.08698	-95.22135	-195.89400	34.94327	-42.11585	-241.59644	32.11281	-241.40547	167.16522	896.83612	-166.40961	-210.10010	902.25739	-159.54126	20.46906	1022.28674	-39.86739	-129.10170	998.92279	-225.08318	93.93410	997.11084	-218.71861
